<svg width="56" height="56" viewBox="0 0 56 56" fill="none" xmlns="http://www.w3.org/2000/svg">
<path d="M29.2979 23.6934L29.4092 24.6182L30.3359 24.5342C30.892 24.4836 31.427 24.3601 31.9453 24.1787C31.8145 24.5853 31.7109 25.0008 31.6338 25.4248L31.4697 26.3262L32.3633 26.5303L39.1211 28.0752L32.9844 29.4697L31.9277 29.71L32.2949 30.7295C32.8376 32.2368 33.6843 33.8816 34.8418 35.6787C33.2665 34.5638 31.7667 33.7051 30.3125 33.0898L29.1416 32.5938L28.9873 33.8574L27.3252 47.5439L25.6172 32.7764L25.5 31.7607L24.4932 31.9434C24.0916 32.0164 23.6994 32.1137 23.3145 32.2324C23.5081 31.7472 23.6533 31.2473 23.7471 30.7314L23.9121 29.8213L23.0088 29.624L15.835 28.0508L22.3994 26.5293L23.5039 26.2734L23.0684 25.2275C22.5231 23.9189 21.7603 22.5138 20.7734 20.9922C22.056 21.9173 23.2636 22.6566 24.4062 23.2031L25.6133 23.7803L25.7715 22.4521L27.458 8.36328L29.2979 23.6934Z" stroke="#96A78D" stroke-width="1.91707"/>
</svg>
