<svg width="56" height="56" viewBox="0 0 56 56" fill="none" xmlns="http://www.w3.org/2000/svg">
<path d="M27.0281 39.8223C27.1204 40.385 27.2473 41.0139 27.491 41.5977V41.5986C28.4589 44.1798 30.5778 45.5505 32.5964 46.4883C31.7416 46.8086 30.9473 47.3493 30.3103 48.0479L30.158 48.2217C28.9506 49.5632 27.9296 51.1593 27.406 53.0088C27.3823 52.8149 27.3532 52.6191 27.3162 52.4287H27.3171C27.0184 50.6365 26.6814 48.3803 24.7986 46.874C24.3273 46.497 23.8256 46.2269 23.3533 46.001C22.9718 45.8185 22.6876 45.6973 22.3796 45.5547C23.7899 44.7702 24.9428 43.7953 25.783 42.584C26.3585 41.7541 26.7716 40.8334 27.0281 39.8223ZM13.5544 28.875C14.1208 31.3249 15.5035 33.1577 17.6482 34.4775L17.6833 34.499L17.7214 34.5186C17.8176 34.5666 17.8901 34.6137 18.0066 34.6914C18.0881 34.7457 18.1928 34.8123 18.321 34.8857C18.3555 34.924 18.3818 34.9543 18.4001 34.9795C18.3916 34.9912 18.3816 35.0041 18.3699 35.0186C18.3638 35.0219 18.3582 35.0259 18.3523 35.0293H18.2957L18.0408 35.2207C16.1961 36.6042 15.0283 38.4185 14.5525 40.623L14.3865 40.208C14.2314 39.8202 14.0758 39.4327 13.9207 39.0449L13.9128 39.0244L13.9041 39.0039L13.7234 38.6357C12.79 36.8587 11.2211 35.7254 9.12378 35.2256C9.02959 35.1941 8.94817 35.1662 8.87671 35.1406C8.88482 35.1322 8.89193 35.1225 8.90015 35.1143C10.6443 33.3701 12.5317 31.3789 13.5544 28.875ZM42.197 25.4209C43.0996 28.0146 44.8151 30.0508 46.9656 31.8184L47.5007 32.2461C47.6693 32.3908 47.8268 32.4687 47.8933 32.502C47.8964 32.5035 47.8994 32.5045 47.9021 32.5059C47.9313 32.5364 47.9596 32.5683 47.9861 32.6006C47.8764 32.6816 47.7561 32.7561 47.6609 32.8037L47.5535 32.8564C47.5286 32.8573 47.5025 32.8574 47.4685 32.8574H47.4158L47.363 32.8633C46.5087 32.9582 45.7418 33.2519 45.1101 33.7783C44.4811 34.3025 44.0442 35.0092 43.7673 35.8398L43.7625 35.8535L43.7585 35.8672C43.5282 36.6351 43.2972 37.3658 43.0642 38.1035C42.9647 38.4187 42.8646 38.7353 42.7644 39.0557C42.7639 38.7316 42.7568 38.3182 42.6589 37.9268C41.9591 34.658 39.8705 32.4291 37.0183 31.0869L36.9666 31.0635L36.9128 31.0449C36.9069 31.0429 36.8997 31.0372 36.8884 31.0312C37.0697 30.8362 37.1029 30.8361 37.0681 30.8477L37.0671 30.8467C39.2978 30.1557 40.9493 28.8937 41.8474 26.5586C41.991 26.1974 42.1034 25.8118 42.197 25.4209ZM26.6687 2.79199C26.9288 3.64845 27.2517 4.69665 27.6384 5.80273C28.1304 7.20966 28.7287 8.73382 29.4304 10.1045C30.1239 11.4591 30.9576 12.7424 31.95 13.5996L31.9636 13.6113L31.9783 13.623C32.3949 13.9563 32.8067 14.244 33.1794 14.499C33.5513 14.7535 33.8654 14.964 34.1472 15.1738C34.3602 15.3585 34.4818 15.494 34.5466 15.5869C34.4709 15.667 34.3316 15.7857 34.0857 15.9395C32.5403 16.867 30.7464 18.0024 29.4167 19.332L29.406 19.3428L29.3953 19.3545C27.2635 21.6284 26.0019 24.2594 25.2791 27.1055C25.1688 26.5207 25.0825 25.924 24.9939 25.3037L24.991 25.2832L24.9871 25.2627L24.8894 24.7764C24.4417 22.684 23.6793 20.8056 22.7048 18.9785L22.24 18.1387C21.3076 16.315 19.652 15.4219 18.3054 14.6738L18.2869 14.6631L18.2683 14.6543L17.8123 14.4238C17.3687 14.195 16.9599 13.964 16.5535 13.6592L16.4939 13.6143C16.5015 13.61 16.5089 13.6056 16.5164 13.6016C20.176 12.4058 22.6307 9.739 24.6667 6.91992L24.6658 6.91895C25.6134 5.6913 26.2206 4.27413 26.6687 2.79199Z" stroke="#96A78D" stroke-width="1.91707"/>
</svg>
