<svg width="56" height="56" viewBox="0 0 56 56" fill="none" xmlns="http://www.w3.org/2000/svg">
<path d="M44.2108 45.6069C38.1609 39.2468 34.5931 34.2828 33.1969 30.4047L43.4352 28.0779L32.5764 25.5959C32.8867 23.8895 33.6623 22.3382 35.0584 20.9421C33.5072 22.4934 31.9559 23.4241 30.2496 23.5792L27.4573 0.310547L24.8202 22.3382C21.2523 20.6319 16.9089 16.9089 11.4795 11.1693C17.2191 17.2191 20.6318 21.8729 22.1831 25.5959L11.4795 28.0779L22.8036 30.5599C22.4933 32.2662 21.5626 33.8175 19.8562 35.2136C21.4075 33.9726 22.9587 33.197 24.6651 32.8867L27.3022 55.69L29.9393 33.9726C33.9726 35.679 38.4712 39.402 44.2108 45.6069Z" fill="#96A78D"/>
</svg>
