<svg width="56" height="56" viewBox="0 0 56 56" fill="none" xmlns="http://www.w3.org/2000/svg">
<path d="M34.7485 14.4256C34.128 13.9602 33.3524 13.4948 32.5768 12.8743C29.164 9.92697 27.1474 0.309239 26.8372 0.309239C26.0615 0.154114 26.2167 0.929737 26.0615 1.39511C25.5962 3.25661 24.9757 4.96298 23.8898 6.3591C21.8732 9.15134 19.5463 11.6333 16.1336 12.7192C15.8233 12.8743 15.3579 13.1846 15.3579 13.4948C15.3579 13.8051 15.6682 14.2705 15.9784 14.4256C16.5989 14.891 17.2194 15.2012 17.8399 15.5115C19.2361 16.2871 20.6322 17.0627 21.4078 18.6139C22.6488 20.7857 23.5796 22.9574 24.0449 25.4394C24.2001 26.5253 24.3552 27.6112 24.6654 28.6971C24.6654 29.0073 25.1308 29.1624 25.441 29.4727C25.5962 29.1624 25.9064 29.0073 25.9064 28.6971C26.5269 25.4394 27.7679 22.4921 30.0948 20.0101C31.3358 18.7691 33.0422 17.6832 34.5934 16.7525C35.8344 15.9768 35.8344 15.3563 34.7485 14.4256ZM48.5546 31.7995C48.3995 31.6444 48.2444 31.6444 48.0892 31.4893C45.297 29.3175 43.2804 26.8356 42.6599 23.4228C42.6599 23.1126 42.3496 22.9574 42.0394 22.8023C41.8843 23.1126 41.574 23.2677 41.574 23.5779C41.4189 24.5087 41.2638 25.4394 40.9535 26.2151C40.1779 28.2317 38.7818 29.3175 36.7651 29.938C36.2998 30.0932 35.9895 30.7137 35.5242 31.0239C35.8344 31.3342 36.1447 31.7995 36.61 31.9547C39.2471 33.1957 41.1086 35.2123 41.7291 38.1597C41.8843 38.7802 41.7291 39.5558 41.8843 40.3314C42.0394 40.7968 42.3496 41.107 42.5048 41.4173H42.815C42.9701 41.107 43.2804 40.9519 43.2804 40.6417C43.7458 39.0904 44.2111 37.6943 44.6765 36.143C45.1419 34.7469 46.0726 33.9713 47.4688 33.8162C47.6239 33.8162 47.9341 33.8162 48.0892 33.661C48.3995 33.5059 48.8649 33.1957 49.02 32.8854C49.1751 32.5752 48.8649 32.1098 48.5546 31.7995ZM28.3884 41.2621C27.923 40.1763 27.923 38.7802 27.6128 37.6943C27.6128 37.384 27.3025 37.2289 26.9923 36.9187C26.8372 37.2289 26.3718 37.384 26.3718 37.6943C26.2167 41.107 24.5103 43.4339 21.4078 44.9851C21.0976 45.1403 20.9424 45.4505 20.7873 45.6056C21.0976 45.7608 21.2527 46.071 21.5629 46.2261C22.4937 46.6915 23.4244 47.0018 24.2001 47.6223C25.7513 48.8633 26.0615 50.7248 26.3718 52.5863C26.5269 53.3619 26.5269 54.2926 26.682 55.0682C26.682 55.2234 26.9923 55.5336 27.3025 55.5336C27.4577 55.5336 27.7679 55.2234 27.923 55.0682C28.0782 54.9131 28.0782 54.6029 28.0782 54.4477C28.3884 52.276 29.4743 50.4145 30.8704 48.8633C31.646 47.9325 32.7319 47.312 33.8178 47.1569C34.128 47.1569 34.2832 46.8466 34.7485 46.6915C34.2832 46.3813 33.9729 46.071 33.6627 45.9159C31.4909 44.9851 29.3192 43.7441 28.3884 41.2621ZM18.9258 34.1264C18.6156 33.9713 18.4604 33.8162 18.1502 33.661C16.1336 32.42 14.8926 30.7137 14.4272 28.3868C14.4272 28.0766 14.2721 27.7663 14.1169 27.4561C13.9618 27.3009 13.8067 26.9907 13.6516 26.9907C13.4965 26.9907 13.1862 27.3009 13.0311 27.4561C12.2555 30.2483 10.2388 32.42 8.22221 34.4367C7.91196 34.7469 7.60171 35.2123 7.75684 35.5225C7.91196 35.8328 8.37734 35.9879 8.84271 36.143C10.8593 36.6084 12.2555 37.6943 13.0311 39.4007C13.3413 40.1763 13.6516 40.9519 13.9618 41.7275C14.1169 42.0378 14.2721 42.348 14.7374 42.8134C15.0477 42.1929 15.3579 41.8826 15.3579 41.5724C15.6682 39.2455 16.7541 37.384 18.6156 35.9879C18.7707 35.9879 18.7707 35.8328 18.9258 35.8328C19.5463 35.2123 19.5463 34.7469 18.9258 34.1264Z" fill="#96A78D"/>
</svg>
