<svg width="30" height="30" viewBox="0 0 30 30" fill="none" xmlns="http://www.w3.org/2000/svg">
<g clip-path="url(#clip0_516_504)">
<path d="M23.5183 12.1333L21.5238 9.88952L18.5321 10.2219C17.618 10.305 17.0363 9.3909 17.4518 8.55988L19.1138 5.9837L17.8673 3.24132C17.5349 2.41029 18.1997 1.57927 19.1138 1.74547L22.0224 2.49339L24.2662 0.498934C24.931 -0.0827838 26.0113 0.332729 26.0944 1.24686L26.2606 4.15544L28.8368 5.65129C29.5847 6.0668 29.5847 7.23024 28.7537 7.56265L26.0113 8.72608L25.3465 11.6347C25.1803 12.5488 24.1 12.7981 23.5183 12.1333Z" fill="#B6CEB4"/>
<path d="M12.8808 20.0263L9.30744 19.3615L6.73126 21.8546C5.98334 22.6025 4.6537 22.187 4.5706 21.1067L4.15508 17.5333L0.99719 15.8712C-3.99331e-05 15.2895 -3.99331e-05 13.9598 0.99719 13.4612L4.23819 11.9654L4.81991 8.39198C4.98611 7.31165 6.31575 6.89614 7.06367 7.72716L9.55675 10.3864L13.1302 9.88782C14.2105 9.72162 14.9584 10.8851 14.4598 11.7992L12.7146 14.9571L14.2936 18.1981C14.7922 19.1122 13.9612 20.1925 12.8808 20.0263Z" fill="#B6CEB4"/>
<path d="M23.7669 29.7492L21.1076 28.4196L18.5314 29.9154C17.7835 30.3309 16.7863 29.6661 16.9525 28.8351L17.368 25.8434L15.2073 23.7658C14.5425 23.1841 14.8749 22.0207 15.7891 21.9376L18.7807 21.4389L20.0273 18.6966C20.4428 17.8655 21.5231 17.8655 21.9386 18.6135L23.3514 21.2727L26.3431 21.6052C27.2572 21.6883 27.5896 22.7686 27.0079 23.4334L24.9303 25.5941L25.512 28.5027C25.4289 29.4168 24.5148 30.1647 23.7669 29.7492Z" fill="#B6CEB4"/>
</g>
<defs>
<clipPath id="clip0_516_504">
<rect width="30" height="30" fill="white"/>
</clipPath>
</defs>
</svg>
