<svg width="346" height="76" viewBox="0 0 346 76" fill="none" xmlns="http://www.w3.org/2000/svg">
<mask id="path-1-inside-1_530_407" fill="white">
<path d="M34.8857 0C26.0492 4.89636e-06 18.8857 7.16345 18.8857 16V28.614C18.8857 29.4664 18.3455 30.2251 17.54 30.5039L1.34571 36.1099C-0.448659 36.7311 -0.448612 39.2688 1.34578 39.8899L17.5399 45.4951C18.3455 45.7739 18.8857 46.5327 18.8857 47.3851V60C18.8857 68.8366 26.0492 76 34.8857 76H329.886C338.722 76 345.886 68.8366 345.886 60V16C345.886 7.16344 338.722 0 329.886 0H34.8857Z"/>
</mask>
<path d="M34.8857 0C26.0492 4.89636e-06 18.8857 7.16345 18.8857 16V28.614C18.8857 29.4664 18.3455 30.2251 17.54 30.5039L1.34571 36.1099C-0.448659 36.7311 -0.448612 39.2688 1.34578 39.8899L17.5399 45.4951C18.3455 45.7739 18.8857 46.5327 18.8857 47.3851V60C18.8857 68.8366 26.0492 76 34.8857 76H329.886C338.722 76 345.886 68.8366 345.886 60V16C345.886 7.16344 338.722 0 329.886 0H34.8857Z" fill="white"/>
<path d="M34.8857 0V-2V-2V0ZM18.8857 16H16.8857H18.8857ZM329.886 76L329.886 78H329.886V76ZM345.886 60H347.886H345.886ZM17.5399 45.4951L16.8857 47.3851L17.5399 45.4951ZM1.3457 36.1099L0.691467 34.22L1.3457 36.1099ZM1.34579 39.8899L1.99997 37.9999L1.34579 39.8899ZM17.54 30.5039L18.1942 32.3939L17.54 30.5039ZM34.8857 0V2C27.1537 2 20.8857 8.26802 20.8857 16H18.8857H16.8857C16.8857 6.05888 24.9446 -1.99999 34.8857 -2V0ZM18.8857 16H20.8857V28.614H18.8857H16.8857V16H18.8857ZM17.54 30.5039L18.1942 32.3939L1.99997 37.9999L1.3457 36.1099L0.691467 34.22L16.8857 28.614L17.54 30.5039ZM1.34579 39.8899L1.99997 37.9999L18.1941 43.6051L17.5399 45.4951L16.8857 47.3851L0.69162 41.7799L1.34579 39.8899ZM18.8857 47.3851H20.8857V60H18.8857H16.8857V47.3851H18.8857ZM18.8857 60H20.8857C20.8857 67.732 27.1537 74 34.8857 74V76V78C24.9446 78 16.8857 69.9411 16.8857 60H18.8857ZM34.8857 76V74H329.886V76V78H34.8857V76ZM329.886 76L329.886 74C337.618 74 343.886 67.732 343.886 60H345.886H347.886C347.886 69.9411 339.827 78 329.886 78L329.886 76ZM345.886 60H343.886V16H345.886H347.886V60H345.886ZM345.886 16H343.886C343.886 8.26801 337.618 2 329.886 2V0V-2C339.827 -2 347.886 6.05887 347.886 16H345.886ZM329.886 0V2H34.8857V0V-2H329.886V0ZM17.5399 45.4951L18.1941 43.6051C19.8052 44.1628 20.8857 45.6803 20.8857 47.3851H18.8857H16.8857V47.3851L17.5399 45.4951ZM1.3457 36.1099L1.99997 37.9999C1.98752 38.0042 1.9809 38.0076 1.97879 38.0087C1.97665 38.0098 1.97748 38.0096 1.98019 38.0075C1.98288 38.0054 1.98624 38.0024 1.98975 37.9987C1.99319 37.995 1.99603 37.9913 1.99823 37.988C2.00266 37.9814 2.00305 37.9786 2.00223 37.9814C2.00128 37.9845 1.99997 37.9911 1.99997 37.9999C1.99997 38.0087 2.00128 38.0152 2.00223 38.0184C2.00305 38.0212 2.00266 38.0183 1.99823 38.0117C1.99603 38.0085 1.99319 38.0048 1.98975 38.0011C1.98624 37.9973 1.98288 37.9944 1.98019 37.9923C1.97748 37.9902 1.97665 37.9899 1.97879 37.9911C1.9809 37.9922 1.98752 37.9956 1.99997 37.9999L1.34579 39.8899L0.69162 41.7799C-2.89719 40.5377 -2.89728 35.4623 0.691467 34.22L1.3457 36.1099ZM18.8857 28.614H20.8857C20.8857 30.3188 19.8052 31.8362 18.1942 32.3939L17.54 30.5039L16.8857 28.614V28.614H18.8857Z" fill="#687C5E" mask="url(#path-1-inside-1_530_407)"/>
</svg>
