<svg width="451" height="76" viewBox="0 0 451 76" fill="none" xmlns="http://www.w3.org/2000/svg">
<mask id="path-1-inside-1_564_583" fill="white">
<path d="M416 0C424.837 0 432 7.16344 432 16V28.614C432 29.4664 432.54 30.2251 433.346 30.5039L449.54 36.1099C451.334 36.7311 451.334 39.2688 449.54 39.8899L433.346 45.4951C432.54 45.7739 432 46.5327 432 47.3851V60C432 68.8366 424.837 76 416 76H16C7.16344 76 6.44299e-08 68.8366 0 60V16C0 7.16344 7.16344 6.44257e-08 16 0H416Z"/>
</mask>
<path d="M416 0C424.837 0 432 7.16344 432 16V28.614C432 29.4664 432.54 30.2251 433.346 30.5039L449.54 36.1099C451.334 36.7311 451.334 39.2688 449.54 39.8899L433.346 45.4951C432.54 45.7739 432 46.5327 432 47.3851V60C432 68.8366 424.837 76 416 76H16C7.16344 76 6.44299e-08 68.8366 0 60V16C0 7.16344 7.16344 6.44257e-08 16 0H416Z" fill="white"/>
<path d="M432 16H434H432ZM416 76V78V76ZM0 60H-2H0ZM16 0V-2V0ZM433.346 45.4951L434 47.3851L433.346 45.4951ZM449.54 36.1099L450.194 34.22L449.54 36.1099ZM449.54 39.8899L448.886 37.9999L449.54 39.8899ZM433.346 30.5039L432.691 32.3939L433.346 30.5039ZM416 0V2C423.732 2 430 8.26801 430 16H432H434C434 6.05887 425.941 -2 416 -2V0ZM432 16H430V28.614H432H434V16H432ZM433.346 30.5039L432.691 32.3939L448.886 37.9999L449.54 36.1099L450.194 34.22L434 28.614L433.346 30.5039ZM449.54 39.8899L448.886 37.9999L432.692 43.6051L433.346 45.4951L434 47.3851L450.194 41.7799L449.54 39.8899ZM432 47.3851H430V60H432H434V47.3851H432ZM432 60H430C430 67.732 423.732 74 416 74V76V78C425.941 78 434 69.9411 434 60H432ZM416 76V74H16V76V78H416V76ZM16 76V74C8.26801 74 2 67.732 2 60H0H-2C-2 69.9411 6.05887 78 16 78V76ZM0 60H2V16H0H-2V60H0ZM0 16H2C2 8.26801 8.26801 2 16 2V0V-2C6.05887 -2 -2 6.05887 -2 16H0ZM16 0V2H416V0V-2H16V0ZM433.346 45.4951L432.692 43.6051C431.081 44.1628 430 45.6803 430 47.3851H432H434V47.3851L433.346 45.4951ZM449.54 36.1099L448.886 37.9999C448.898 38.0042 448.905 38.0076 448.907 38.0087C448.909 38.0098 448.908 38.0096 448.906 38.0075C448.903 38.0054 448.9 38.0024 448.896 37.9987C448.893 37.995 448.89 37.9913 448.888 37.988C448.883 37.9814 448.883 37.9786 448.884 37.9814C448.884 37.9845 448.886 37.9911 448.886 37.9999C448.886 38.0087 448.884 38.0152 448.884 38.0184C448.883 38.0212 448.883 38.0183 448.888 38.0117C448.89 38.0085 448.893 38.0048 448.896 38.0011C448.9 37.9973 448.903 37.9944 448.906 37.9923C448.908 37.9902 448.909 37.9899 448.907 37.9911C448.905 37.9922 448.898 37.9956 448.886 37.9999L449.54 39.8899L450.194 41.7799C453.783 40.5377 453.783 35.4623 450.194 34.22L449.54 36.1099ZM432 28.614H430C430 30.3188 431.081 31.8362 432.691 32.3939L433.346 30.5039L434 28.614V28.614H432Z" fill="#343434" mask="url(#path-1-inside-1_564_583)"/>
</svg>
