<svg width="37" height="37" viewBox="0 0 37 37" fill="none" xmlns="http://www.w3.org/2000/svg">
<g clip-path="url(#clip0_530_485)">
<path d="M12.688 2.95215C12.9526 1.23397 15.1036 0.547961 16.3735 1.8877L22.27 8.18359L22.6294 8.56738L23.1489 8.48926L31.7495 7.18945L31.7524 7.18848C33.4745 6.92392 34.7513 8.69432 33.9243 10.3164L29.7251 17.917L29.4722 18.374L29.7036 18.8428L33.5034 26.543L33.5112 26.5596L33.521 26.5771C34.4051 28.2102 33.0874 29.9641 31.2886 29.6182H31.2847L22.7847 28.0176L22.2769 27.9219L21.9048 28.2822L15.7046 34.2822L15.6987 34.2871L15.6929 34.293C14.4931 35.4927 12.2988 34.7666 12.0933 32.9854L11.0933 24.3848L11.0317 23.8574L10.561 23.6133L2.86084 19.6133C1.31053 18.8029 1.36158 16.565 2.91943 15.8086L10.7192 12.208L11.2007 11.9863L11.2866 11.4629L12.687 2.96289L12.688 2.95215Z" stroke="#96A78D" stroke-width="2"/>
</g>
<defs>
<clipPath id="clip0_530_485">
<rect width="36.1" height="36.1" fill="white"/>
</clipPath>
</defs>
</svg>
