<svg width="37" height="37" viewBox="0 0 37 37" fill="none" xmlns="http://www.w3.org/2000/svg">
<g clip-path="url(#clip0_530_505)">
<path d="M29.8579 1.35254C30.0434 1.19028 30.3777 1.30498 30.4038 1.59082L30.6011 5.05762L30.6323 5.59473L31.0981 5.86523L34.1978 7.66504L34.2056 7.66992L34.2144 7.6748C34.301 7.72308 34.3664 7.82665 34.3628 7.96094C34.3611 8.02293 34.3436 8.06938 34.3247 8.09863C34.3092 8.12262 34.2837 8.14961 34.228 8.17188L34.2192 8.17578L34.2095 8.17969L30.9097 9.58008L30.439 9.7793L30.3247 10.2773L29.5249 13.7773L29.52 13.7998L29.5161 13.8213C29.4997 13.9113 29.4668 13.959 29.4429 13.9844C29.4165 14.0121 29.3813 14.0329 29.3384 14.0439C29.2542 14.0656 29.1454 14.0479 29.0522 13.9414L29.0474 13.9355L26.647 11.2363L26.3032 10.8496L25.7896 10.9062L22.2065 11.3037C22.0353 11.3185 21.9417 11.2508 21.8901 11.1709C21.8377 11.0896 21.805 10.9536 21.8794 10.7812L23.8403 7.74219L24.1362 7.2832L23.9106 6.78613L22.4253 3.51855C22.3667 3.3634 22.4051 3.25294 22.4604 3.18555C22.5123 3.12241 22.6137 3.0549 22.7944 3.08008L26.2505 3.96875L26.7661 4.10156L27.1646 3.74805L29.8579 1.35254Z" stroke="#96A78D" stroke-width="2"/>
<path d="M6.78809 10.251C6.86157 9.77391 7.42839 9.60283 7.75684 9.96777L7.77051 9.9834L10.7705 13.1826L11.125 13.5615L11.6377 13.4893L15.9385 12.8896L15.9521 12.8877C16.1819 12.8524 16.3652 12.9465 16.4834 13.1211C16.6082 13.3057 16.6246 13.5306 16.5215 13.7197L14.4248 17.5156L14.1729 17.9697L14.4004 18.4375L16.3008 22.3369L16.3105 22.3574L16.3223 22.3779C16.4104 22.5397 16.3948 22.7148 16.2705 22.876C16.143 23.0412 15.9217 23.1519 15.6514 23.1104L11.3828 22.3164L10.875 22.2217L10.5039 22.5801L7.4043 25.5801L7.39258 25.5918C7.23393 25.7504 7.01449 25.7915 6.81641 25.7256C6.63043 25.6636 6.5129 25.5281 6.49707 25.3223L6.49316 25.2832L5.99316 20.9834L5.93262 20.46L5.46582 20.2139L1.69336 18.2285C1.40129 18.0537 1.2998 17.8073 1.2998 17.6113C1.29988 17.4216 1.39139 17.224 1.6416 17.0967L5.51855 15.3066L6.00098 15.084L6.08691 14.5596L6.78711 10.2598L6.78809 10.251Z" stroke="#96A78D" stroke-width="2"/>
<path d="M25.2778 22.7363C25.3729 22.7337 25.4657 22.7767 25.5259 22.8848L27.2173 26.0684L27.4644 26.5352L27.9897 26.5928L31.5894 26.9932L31.6001 26.9941L31.6099 26.9951C31.6888 27.0023 31.7304 27.0273 31.7544 27.0469C31.782 27.0697 31.8108 27.1065 31.8296 27.1611C31.8684 27.2746 31.8502 27.4179 31.7505 27.5352L29.2798 30.1064L28.9175 30.4834L29.02 30.9951L29.6841 34.3232C29.634 34.5375 29.5049 34.7335 29.3501 34.8496C29.1775 34.979 29.1035 34.9348 29.0854 34.9248L29.0669 34.915L29.0474 34.9053L25.8472 33.3047L25.3647 33.0635L24.8979 33.335L21.8149 35.125C21.7497 35.1612 21.6297 35.1728 21.4985 35.084C21.4389 35.0436 21.4052 34.9984 21.3901 34.9668C21.3783 34.9417 21.3751 34.9222 21.3804 34.8955L21.3862 34.8662L21.3911 34.8369L21.8911 31.2373L21.9604 30.7314L21.5933 30.3789L18.9937 27.8789L18.9761 27.8623L18.9585 27.8467C18.893 27.7893 18.856 27.6908 18.894 27.5664C18.9119 27.508 18.9417 27.4662 18.9702 27.4414C18.9938 27.4209 19.028 27.4012 19.0903 27.3955L19.1274 27.3916L19.1646 27.3857L22.7642 26.7861L23.2905 26.6982L23.5103 26.2129L24.9966 22.9414C25.0792 22.7799 25.1923 22.7387 25.2778 22.7363Z" stroke="#96A78D" stroke-width="2"/>
</g>
<defs>
<clipPath id="clip0_530_505">
<rect width="36.1" height="36.1" fill="white"/>
</clipPath>
</defs>
</svg>
