<svg width="417" height="76" viewBox="0 0 417 76" fill="none" xmlns="http://www.w3.org/2000/svg">
<mask id="path-1-inside-1_568_669" fill="white">
<path d="M382 0C390.837 7.08683e-07 398 7.16344 398 16V28.614C398 29.4664 398.54 30.2251 399.346 30.5039L415.54 36.1099C417.334 36.7311 417.334 39.2688 415.54 39.8899L399.346 45.4951C398.54 45.7739 398 46.5327 398 47.3851V60C398 68.8366 390.837 76 382 76H16C7.16344 76 6.443e-08 68.8366 0 60V16C0 7.16344 7.16344 0 16 0H382Z"/>
</mask>
<path d="M382 0C390.837 7.08683e-07 398 7.16344 398 16V28.614C398 29.4664 398.54 30.2251 399.346 30.5039L415.54 36.1099C417.334 36.7311 417.334 39.2688 415.54 39.8899L399.346 45.4951C398.54 45.7739 398 46.5327 398 47.3851V60C398 68.8366 390.837 76 382 76H16C7.16344 76 6.443e-08 68.8366 0 60V16C0 7.16344 7.16344 0 16 0H382Z" fill="#D9E9CF"/>
<path d="M382 0V-2V-2V0ZM398 16H400H398ZM16 76V78V78V76ZM0 60H-2H0ZM399.346 45.4951L400 47.3851L399.346 45.4951ZM415.54 36.1099L416.194 34.22L415.54 36.1099ZM415.54 39.8899L414.886 37.9999L415.54 39.8899ZM399.346 30.5039L398.691 32.3939L399.346 30.5039ZM382 0V2C389.732 2 396 8.26801 396 16H398H400C400 6.05888 391.941 -2 382 -2V0ZM398 16H396V28.614H398H400V16H398ZM399.346 30.5039L398.691 32.3939L414.886 37.9999L415.54 36.1099L416.194 34.22L400 28.614L399.346 30.5039ZM415.54 39.8899L414.886 37.9999L398.692 43.6051L399.346 45.4951L400 47.3851L416.194 41.7799L415.54 39.8899ZM398 47.3851H396V60H398H400V47.3851H398ZM398 60H396C396 67.732 389.732 74 382 74V76V78C391.941 78 400 69.9411 400 60H398ZM382 76V74H16V76V78H382V76ZM16 76V74C8.26801 74 2 67.732 2 60H0H-2C-2 69.9411 6.05888 78 16 78V76ZM0 60H2V16H0H-2V60H0ZM0 16H2C2 8.26801 8.26801 2 16 2V0V-2C6.05887 -2 -2 6.05887 -2 16H0ZM16 0V2H382V0V-2H16V0ZM399.346 45.4951L398.692 43.6051C397.081 44.1628 396 45.6803 396 47.3851H398H400V47.3851L399.346 45.4951ZM415.54 36.1099L414.886 37.9999C414.898 38.0042 414.905 38.0076 414.907 38.0087C414.909 38.0098 414.908 38.0096 414.906 38.0075C414.903 38.0054 414.9 38.0024 414.896 37.9987C414.893 37.995 414.89 37.9913 414.888 37.988C414.883 37.9814 414.883 37.9786 414.884 37.9814C414.884 37.9845 414.886 37.9911 414.886 37.9999C414.886 38.0087 414.884 38.0152 414.884 38.0184C414.883 38.0212 414.883 38.0183 414.888 38.0117C414.89 38.0085 414.893 38.0048 414.896 38.0011C414.9 37.9973 414.903 37.9944 414.906 37.9923C414.908 37.9902 414.909 37.9899 414.907 37.9911C414.905 37.9922 414.898 37.9956 414.886 37.9999L415.54 39.8899L416.194 41.7799C419.783 40.5377 419.783 35.4623 416.194 34.22L415.54 36.1099ZM398 28.614H396C396 30.3188 397.081 31.8362 398.691 32.3939L399.346 30.5039L400 28.614V28.614H398Z" fill="#687C5E" mask="url(#path-1-inside-1_568_669)"/>
</svg>
