<svg width="356" height="76" viewBox="0 0 356 76" fill="none" xmlns="http://www.w3.org/2000/svg">
<mask id="path-1-inside-1_568_664" fill="white">
<path d="M321 0C329.837 0 337 7.16344 337 16V28.614C337 29.4664 337.54 30.2251 338.346 30.5039L354.54 36.1099C356.334 36.7311 356.334 39.2688 354.54 39.8899L338.346 45.4951C337.54 45.7739 337 46.5327 337 47.3851V60C337 68.8366 329.837 76 321 76H16C7.16344 76 6.44299e-08 68.8366 0 60V16C0 7.16344 7.16344 0 16 0H321Z"/>
</mask>
<path d="M321 0C329.837 0 337 7.16344 337 16V28.614C337 29.4664 337.54 30.2251 338.346 30.5039L354.54 36.1099C356.334 36.7311 356.334 39.2688 354.54 39.8899L338.346 45.4951C337.54 45.7739 337 46.5327 337 47.3851V60C337 68.8366 329.837 76 321 76H16C7.16344 76 6.44299e-08 68.8366 0 60V16C0 7.16344 7.16344 0 16 0H321Z" fill="#D9E9CF"/>
<path d="M337 16H339H337ZM0 60H-2H0ZM338.346 45.4951L339 47.3851L338.346 45.4951ZM354.54 36.1099L355.194 34.22L354.54 36.1099ZM354.54 39.8899L353.886 37.9999L354.54 39.8899ZM338.346 30.5039L337.691 32.3939L338.346 30.5039ZM321 0V2C328.732 2 335 8.26801 335 16H337H339C339 6.05887 330.941 -2 321 -2V0ZM337 16H335V28.614H337H339V16H337ZM338.346 30.5039L337.691 32.3939L353.886 37.9999L354.54 36.1099L355.194 34.22L339 28.614L338.346 30.5039ZM354.54 39.8899L353.886 37.9999L337.692 43.6051L338.346 45.4951L339 47.3851L355.194 41.7799L354.54 39.8899ZM337 47.3851H335V60H337H339V47.3851H337ZM337 60H335C335 67.732 328.732 74 321 74V76V78C330.941 78 339 69.9411 339 60H337ZM321 76V74H16V76V78H321V76ZM16 76V74C8.26801 74 2 67.732 2 60H0H-2C-2 69.9411 6.05887 78 16 78V76ZM0 60H2V16H0H-2V60H0ZM0 16H2C2 8.26801 8.26801 2 16 2V0V-2C6.05887 -2 -2 6.05887 -2 16H0ZM16 0V2H321V0V-2H16V0ZM338.346 45.4951L337.692 43.6051C336.081 44.1628 335 45.6803 335 47.3851H337H339V47.3851L338.346 45.4951ZM354.54 36.1099L353.886 37.9999C353.898 38.0042 353.905 38.0076 353.907 38.0087C353.909 38.0098 353.908 38.0096 353.906 38.0075C353.903 38.0054 353.9 38.0024 353.896 37.9987C353.893 37.995 353.89 37.9913 353.888 37.988C353.883 37.9814 353.883 37.9786 353.884 37.9814C353.884 37.9845 353.886 37.9911 353.886 37.9999C353.886 38.0087 353.884 38.0152 353.884 38.0184C353.883 38.0212 353.883 38.0183 353.888 38.0117C353.89 38.0085 353.893 38.0048 353.896 38.0011C353.9 37.9973 353.903 37.9944 353.906 37.9923C353.908 37.9902 353.909 37.9899 353.907 37.9911C353.905 37.9922 353.898 37.9956 353.886 37.9999L354.54 39.8899L355.194 41.7799C358.783 40.5377 358.783 35.4623 355.194 34.22L354.54 36.1099ZM337 28.614H335C335 30.3188 336.081 31.8362 337.691 32.3939L338.346 30.5039L339 28.614V28.614H337Z" fill="#687C5E" mask="url(#path-1-inside-1_568_664)"/>
</svg>
