<svg width="37" height="37" viewBox="0 0 37 37" fill="none" xmlns="http://www.w3.org/2000/svg">
<path d="M22.4002 9.30051C22.0002 9.00051 21.5002 8.70051 21.0002 8.30051C18.8002 6.40051 17.5002 0.200506 17.3002 0.200506C16.8002 0.100506 16.9002 0.600506 16.8002 0.900506C16.5002 2.10051 16.1002 3.20051 15.4002 4.10051C14.1002 5.90051 12.6002 7.50051 10.4002 8.20051C10.2002 8.30051 9.90023 8.50051 9.90023 8.70051C9.90023 8.90051 10.1002 9.20051 10.3002 9.30051C10.7002 9.60051 11.1002 9.80051 11.5002 10.0005C12.4002 10.5005 13.3002 11.0005 13.8002 12.0005C14.6002 13.4005 15.2002 14.8005 15.5002 16.4005C15.6002 17.1005 15.7002 17.8005 15.9002 18.5005C15.9002 18.7005 16.2002 18.8005 16.4002 19.0005C16.5002 18.8005 16.7002 18.7005 16.7002 18.5005C17.1002 16.4005 17.9002 14.5005 19.4002 12.9005C20.2002 12.1005 21.3002 11.4005 22.3002 10.8005C23.1002 10.3005 23.1002 9.90051 22.4002 9.30051ZM31.3002 20.5005C31.2002 20.4005 31.1002 20.4005 31.0002 20.3005C29.2002 18.9005 27.9002 17.3005 27.5002 15.1005C27.5002 14.9005 27.3002 14.8005 27.1002 14.7005C27.0002 14.9005 26.8002 15.0005 26.8002 15.2005C26.7002 15.8005 26.6002 16.4005 26.4002 16.9005C25.9002 18.2005 25.0002 18.9005 23.7002 19.3005C23.4002 19.4005 23.2002 19.8005 22.9002 20.0005C23.1002 20.2005 23.3002 20.5005 23.6002 20.6005C25.3002 21.4005 26.5002 22.7005 26.9002 24.6005C27.0002 25.0005 26.9002 25.5005 27.0002 26.0005C27.1002 26.3005 27.3002 26.5005 27.4002 26.7005H27.6002C27.7002 26.5005 27.9002 26.4005 27.9002 26.2005C28.2002 25.2005 28.5002 24.3005 28.8002 23.3005C29.1002 22.4005 29.7002 21.9005 30.6002 21.8005C30.7002 21.8005 30.9002 21.8005 31.0002 21.7005C31.2002 21.6005 31.5002 21.4005 31.6002 21.2005C31.7002 21.0005 31.5002 20.7005 31.3002 20.5005ZM18.3002 26.6005C18.0002 25.9005 18.0002 25.0005 17.8002 24.3005C17.8002 24.1005 17.6002 24.0005 17.4002 23.8005C17.3002 24.0005 17.0002 24.1005 17.0002 24.3005C16.9002 26.5005 15.8002 28.0005 13.8002 29.0005C13.6002 29.1005 13.5002 29.3005 13.4002 29.4005C13.6002 29.5005 13.7002 29.7005 13.9002 29.8005C14.5002 30.1005 15.1002 30.3005 15.6002 30.7005C16.6002 31.5005 16.8002 32.7005 17.0002 33.9005C17.1002 34.4005 17.1002 35.0005 17.2002 35.5005C17.2002 35.6005 17.4002 35.8005 17.6002 35.8005C17.7002 35.8005 17.9002 35.6005 18.0002 35.5005C18.1002 35.4005 18.1002 35.2005 18.1002 35.1005C18.3002 33.7005 19.0002 32.5005 19.9002 31.5005C20.4002 30.9005 21.1002 30.5005 21.8002 30.4005C22.0002 30.4005 22.1002 30.2005 22.4002 30.1005C22.1002 29.9005 21.9002 29.7005 21.7002 29.6005C20.3002 29.0005 18.9002 28.2005 18.3002 26.6005ZM12.2002 22.0005C12.0002 21.9005 11.9002 21.8005 11.7002 21.7005C10.4002 20.9005 9.60023 19.8005 9.30023 18.3005C9.30023 18.1005 9.20023 17.9005 9.10023 17.7005C9.00023 17.6005 8.90023 17.4005 8.80023 17.4005C8.70023 17.4005 8.50023 17.6005 8.40023 17.7005C7.90023 19.5005 6.60023 20.9005 5.30023 22.2005C5.10023 22.4005 4.90023 22.7005 5.00023 22.9005C5.10023 23.1005 5.40023 23.2005 5.70023 23.3005C7.00023 23.6005 7.90023 24.3005 8.40023 25.4005C8.60023 25.9005 8.80023 26.4005 9.00023 26.9005C9.10023 27.1005 9.20023 27.3005 9.50023 27.6005C9.70023 27.2005 9.90023 27.0005 9.90023 26.8005C10.1002 25.3005 10.8002 24.1005 12.0002 23.2005C12.1002 23.2005 12.1002 23.1005 12.2002 23.1005C12.6002 22.7005 12.6002 22.4005 12.2002 22.0005Z" fill="#96A78D"/>
</svg>
