<svg width="365" height="76" viewBox="0 0 365 76" fill="none" xmlns="http://www.w3.org/2000/svg">
<mask id="path-1-inside-1_564_588" fill="white">
<path d="M330 0C338.837 0 346 7.16344 346 16V28.614C346 29.4664 346.54 30.2251 347.346 30.5039L363.54 36.1099C365.334 36.7311 365.334 39.2688 363.54 39.8899L347.346 45.4951C346.54 45.7739 346 46.5327 346 47.3851V60C346 68.8366 338.837 76 330 76H16C7.16344 76 6.443e-08 68.8366 0 60V16C0 7.16344 7.16344 0 16 0H330Z"/>
</mask>
<path d="M330 0C338.837 0 346 7.16344 346 16V28.614C346 29.4664 346.54 30.2251 347.346 30.5039L363.54 36.1099C365.334 36.7311 365.334 39.2688 363.54 39.8899L347.346 45.4951C346.54 45.7739 346 46.5327 346 47.3851V60C346 68.8366 338.837 76 330 76H16C7.16344 76 6.443e-08 68.8366 0 60V16C0 7.16344 7.16344 0 16 0H330Z" fill="white"/>
<path d="M346 16H348H346ZM0 60H-2H0ZM347.346 45.4951L348 47.3851L347.346 45.4951ZM363.54 36.1099L364.194 34.22L363.54 36.1099ZM363.54 39.8899L362.886 37.9999L363.54 39.8899ZM347.346 30.5039L346.691 32.3939L347.346 30.5039ZM330 0V2C337.732 2 344 8.26801 344 16H346H348C348 6.05887 339.941 -2 330 -2V0ZM346 16H344V28.614H346H348V16H346ZM347.346 30.5039L346.691 32.3939L362.886 37.9999L363.54 36.1099L364.194 34.22L348 28.614L347.346 30.5039ZM363.54 39.8899L362.886 37.9999L346.692 43.6051L347.346 45.4951L348 47.3851L364.194 41.7799L363.54 39.8899ZM346 47.3851H344V60H346H348V47.3851H346ZM346 60H344C344 67.732 337.732 74 330 74V76V78C339.941 78 348 69.9411 348 60H346ZM330 76V74H16V76V78H330V76ZM16 76V74C8.26801 74 2 67.732 2 60H0H-2C-2 69.9411 6.05887 78 16 78V76ZM0 60H2V16H0H-2V60H0ZM0 16H2C2 8.26801 8.26801 2 16 2V0V-2C6.05887 -2 -2 6.05887 -2 16H0ZM16 0V2H330V0V-2H16V0ZM347.346 45.4951L346.692 43.6051C345.081 44.1628 344 45.6803 344 47.3851H346H348V47.3851L347.346 45.4951ZM363.54 36.1099L362.886 37.9999C362.898 38.0042 362.905 38.0076 362.907 38.0087C362.909 38.0098 362.908 38.0096 362.906 38.0075C362.903 38.0054 362.9 38.0024 362.896 37.9987C362.893 37.995 362.89 37.9913 362.888 37.988C362.883 37.9814 362.883 37.9786 362.884 37.9814C362.884 37.9845 362.886 37.9911 362.886 37.9999C362.886 38.0087 362.884 38.0152 362.884 38.0184C362.883 38.0212 362.883 38.0183 362.888 38.0117C362.89 38.0085 362.893 38.0048 362.896 38.0011C362.9 37.9973 362.903 37.9944 362.906 37.9923C362.908 37.9902 362.909 37.9899 362.907 37.9911C362.905 37.9922 362.898 37.9956 362.886 37.9999L363.54 39.8899L364.194 41.7799C367.783 40.5377 367.783 35.4623 364.194 34.22L363.54 36.1099ZM346 28.614H344C344 30.3188 345.081 31.8362 346.691 32.3939L347.346 30.5039L348 28.614V28.614H346Z" fill="#343434" mask="url(#path-1-inside-1_564_588)"/>
</svg>
