<svg width="570" height="148" viewBox="0 0 570 148" fill="none" xmlns="http://www.w3.org/2000/svg">
<mask id="path-1-inside-1_564_562" fill="white">
<path d="M35 0C26.1634 0 18.999 7.16344 18.999 16V64.5749C18.999 65.4273 18.4588 66.186 17.6533 66.4649L1.34583 72.1099C-0.44856 72.7311 -0.448514 75.2688 1.3459 75.8899L17.6532 81.5342C18.4587 81.813 18.999 82.5717 18.999 83.4242V132C18.999 140.837 26.1634 148 35 148H553.999C562.836 148 570 140.837 570 132V16C570 7.16344 562.836 0 553.999 0H35Z"/>
</mask>
<path d="M35 0C26.1634 0 18.999 7.16344 18.999 16V64.5749C18.999 65.4273 18.4588 66.186 17.6533 66.4649L1.34583 72.1099C-0.44856 72.7311 -0.448514 75.2688 1.3459 75.8899L17.6532 81.5342C18.4587 81.813 18.999 82.5717 18.999 83.4242V132C18.999 140.837 26.1634 148 35 148H553.999C562.836 148 570 140.837 570 132V16C570 7.16344 562.836 0 553.999 0H35Z" fill="white"/>
<path fill-rule="evenodd" clip-rule="evenodd" d="M18.999 16H16.999V16H18.999ZM570 132H572V132H570ZM17.6532 81.5342L16.999 83.4242L17.6532 81.5342ZM1.34583 72.1099L2.00006 73.9999L1.34583 72.1099ZM1.34589 75.8899L2.00006 73.9999L1.34589 75.8899ZM17.6533 66.4649L16.999 64.5749L17.6533 66.4649ZM35 0V2C27.2679 2 20.999 8.26817 20.999 16H18.999H16.999C16.999 6.05872 25.059 -2 35 -2V0ZM18.999 16H20.999V64.5749H18.999H16.999V16H18.999ZM17.6533 66.4649L18.3075 68.3548L2.00006 73.9999L1.34583 72.1099L0.691589 70.2199L16.999 64.5749L17.6533 66.4649ZM1.34589 75.8899L2.00006 73.9999L18.3074 79.6442L17.6532 81.5342L16.999 83.4242L0.691711 77.7799L1.34589 75.8899ZM18.999 83.4242H20.999V132H18.999H16.999V83.4242H18.999ZM18.999 132H20.999C20.999 139.732 27.2679 146 35 146V148V150C25.059 150 16.999 141.941 16.999 132H18.999ZM35 148V146H553.999V148V150H35V148ZM553.999 148V146C561.731 146 568 139.732 568 132H570H572C572 141.941 563.94 150 553.999 150V148ZM570 132H568V16H570H572V132H570ZM570 16H568C568 8.26817 561.731 2 553.999 2V0V-2C563.94 -2 572 6.05872 572 16H570ZM553.999 0V2H35V0V-2H553.999V0ZM17.6532 81.5342L18.3074 79.6442C19.9185 80.2018 20.999 81.7193 20.999 83.4242H18.999H16.999V83.4242L17.6532 81.5342ZM1.34583 72.1099L2.00006 73.9999C1.98761 74.0042 1.98102 74.0076 1.97888 74.0087C1.97675 74.0098 1.97754 74.0096 1.98029 74.0075C1.98297 74.0054 1.98633 74.0024 1.98987 73.9987C1.99329 73.995 1.99615 73.9913 1.99835 73.988C2.00275 73.9814 2.00317 73.9786 2.00232 73.9814C2.0014 73.9845 2.00006 73.9911 2.00006 73.9999C2.00006 74.0087 2.0014 74.0152 2.00232 74.0184C2.00317 74.0212 2.00275 74.0183 1.99835 74.0117C1.99615 74.0085 1.99329 74.0048 1.98987 74.0011C1.98633 73.9973 1.98297 73.9944 1.98029 73.9923C1.97754 73.9902 1.97675 73.9899 1.97888 73.9911C1.98102 73.9922 1.98761 73.9956 2.00006 73.9999L1.34589 75.8899L0.691711 77.7799C-2.89709 76.5377 -2.89716 71.4622 0.691589 70.2199L1.34583 72.1099ZM18.999 64.5749H20.999C20.999 66.2797 19.9185 67.7972 18.3075 68.3548L17.6533 66.4649L16.999 64.5749V64.5749H18.999Z" fill="#687C5E" mask="url(#path-1-inside-1_564_562)"/>
</svg>
