<svg width="37" height="37" viewBox="0 0 37 37" fill="none" xmlns="http://www.w3.org/2000/svg">
<path d="M17.3809 26.9941C17.9466 28.4639 19.0469 29.3548 20.1592 29.9668C19.7855 30.1989 19.4453 30.4918 19.1572 30.8311C18.6432 31.4022 18.1751 32.0486 17.8105 32.7686C17.6018 31.8007 17.2179 30.7146 16.2246 29.9199C15.8923 29.6541 15.544 29.4669 15.2324 29.3174C15.9086 28.8595 16.4853 28.3176 16.9346 27.6699C17.0953 27.4381 17.2372 27.1964 17.3613 26.9453C17.368 26.9615 17.3739 26.978 17.3809 26.9941ZM8.66016 19.6465C9.15053 20.8683 9.99887 21.8274 11.1758 22.5518L11.1934 22.5625C10.3468 23.2478 9.72503 24.0787 9.33398 25.042C9.3323 25.0378 9.33079 25.0335 9.3291 25.0293L9.32031 25.0078L9.31055 24.9863C8.7396 23.7305 7.7497 22.895 6.43945 22.4697C7.23271 21.6562 8.05215 20.7318 8.66016 19.6465ZM27.2451 17.4717C27.9153 18.8112 28.925 19.9073 30.1113 20.8701C29.6432 20.9732 29.2093 21.1705 28.835 21.4824C28.3642 21.8747 28.0477 22.396 27.8516 22.9844L27.8467 22.999L27.8428 23.0127C27.7833 23.2111 27.7199 23.405 27.6602 23.5977C27.119 22.0013 26.0425 20.8243 24.6445 20.0195C25.7975 19.5336 26.6962 18.7452 27.2451 17.4717ZM17.168 3.00879C17.2574 3.2846 17.353 3.5733 17.4561 3.86816C17.776 4.78331 18.1683 5.78412 18.6318 6.68945C19.0868 7.57804 19.6514 8.45714 20.3467 9.05762L20.376 9.08105C20.656 9.3051 20.9308 9.49745 21.1729 9.66309C21.3682 9.79676 21.5295 9.90694 21.6748 10.0107C20.7008 10.5981 19.5571 11.3297 18.6934 12.1934L18.6816 12.2051L18.6709 12.2168C17.638 13.3186 16.9118 14.5433 16.4082 15.8506C16.0629 14.2629 15.4469 12.8652 14.6689 11.5039H14.667C14.0034 10.2207 12.8357 9.59783 11.9863 9.12598L11.9473 9.10645L11.4766 8.86133C13.5508 7.96908 14.998 6.36002 16.1895 4.71484C16.6004 4.18647 16.9158 3.60899 17.168 3.00879Z" stroke="#96A78D" stroke-width="2"/>
</svg>
