<svg width="37" height="37" viewBox="0 0 37 37" fill="none" xmlns="http://www.w3.org/2000/svg">
<g clip-path="url(#clip0_530_487)">
<path d="M28.2998 14.6004L25.8998 11.9004L22.2998 12.3004C21.1998 12.4004 20.4998 11.3004 20.9998 10.3004L22.9998 7.2004L21.4998 3.9004C21.0998 2.9004 21.8998 1.9004 22.9998 2.1004L26.4998 3.0004L29.1998 0.600397C29.9998 -0.0996034 31.2998 0.400396 31.3998 1.5004L31.5998 5.0004L34.6998 6.8004C35.5998 7.3004 35.5998 8.7004 34.5998 9.1004L31.2998 10.5004L30.4998 14.0004C30.2998 15.1004 28.9998 15.4004 28.2998 14.6004Z" fill="#96A78D"/>
<path d="M15.4998 24.0991L11.1998 23.2991L8.0998 26.2991C7.1998 27.1991 5.5998 26.6991 5.4998 25.3991L4.9998 21.0991L1.1998 19.0991C-0.000195324 18.3991 -0.000195324 16.7991 1.1998 16.1991L5.0998 14.3991L5.7998 10.0991C5.9998 8.79906 7.5998 8.29906 8.4998 9.29906L11.4998 12.4991L15.7998 11.8991C17.0998 11.6991 17.9998 13.0991 17.3998 14.1991L15.2998 17.9991L17.1998 21.8991C17.7998 22.9991 16.7998 24.2991 15.4998 24.0991Z" fill="#96A78D"/>
<path d="M28.6002 35.7993L25.4002 34.1993L22.3002 35.9993C21.4002 36.4993 20.2002 35.6993 20.4002 34.6993L20.9002 31.0993L18.3002 28.5993C17.5002 27.8993 17.9002 26.4993 19.0002 26.3993L22.6002 25.7993L24.1002 22.4993C24.6002 21.4993 25.9002 21.4993 26.4002 22.3993L28.1002 25.5993L31.7002 25.9993C32.8002 26.0993 33.2002 27.3993 32.5002 28.1993L30.0002 30.7993L30.7002 34.2993C30.6002 35.3993 29.5002 36.2993 28.6002 35.7993Z" fill="#96A78D"/>
</g>
<defs>
<clipPath id="clip0_530_487">
<rect width="36.1" height="36.1" fill="white"/>
</clipPath>
</defs>
</svg>
