<svg width="232" height="76" viewBox="0 0 232 76" fill="none" xmlns="http://www.w3.org/2000/svg">
<mask id="path-1-inside-1_564_556" fill="white">
<path d="M197 0C205.837 0 213 7.16344 213 16V28.614C213 29.4664 213.54 30.2251 214.346 30.5039L230.54 36.1099C232.334 36.7311 232.334 39.2688 230.54 39.8899L214.346 45.4951C213.54 45.7739 213 46.5327 213 47.3851V60C213 68.8366 205.837 76 197 76H16C7.16344 76 6.44299e-08 68.8366 0 60V16C0 7.16344 7.16344 1.24825e-07 16 0H197Z"/>
</mask>
<path d="M197 0C205.837 0 213 7.16344 213 16V28.614C213 29.4664 213.54 30.2251 214.346 30.5039L230.54 36.1099C232.334 36.7311 232.334 39.2688 230.54 39.8899L214.346 45.4951C213.54 45.7739 213 46.5327 213 47.3851V60C213 68.8366 205.837 76 197 76H16C7.16344 76 6.44299e-08 68.8366 0 60V16C0 7.16344 7.16344 1.24825e-07 16 0H197Z" fill="white"/>
<path d="M213 16H215H213ZM197 76V78V76ZM0 60H-2H0ZM16 0V-2V0ZM214.346 45.4951L215 47.3851L214.346 45.4951ZM230.54 36.1099L229.886 37.9999L230.54 36.1099ZM214.346 30.5039L213.691 32.3939L214.346 30.5039ZM197 0V2C204.732 2 211 8.26801 211 16H213H215C215 6.05887 206.941 -2 197 -2V0ZM213 16H211V28.614H213H215V16H213ZM214.346 30.5039L213.691 32.3939L229.886 37.9999L230.54 36.1099L231.194 34.22L215 28.614L214.346 30.5039ZM230.54 39.8899L229.886 37.9999L213.692 43.6051L214.346 45.4951L215 47.3851L231.194 41.7799L230.54 39.8899ZM213 47.3851H211V60H213H215V47.3851H213ZM213 60H211C211 67.732 204.732 74 197 74V76V78C206.941 78 215 69.9411 215 60H213ZM197 76V74H16V76V78H197V76ZM16 76V74C8.26801 74 2 67.732 2 60H0H-2C-2 69.9411 6.05887 78 16 78V76ZM0 60H2V16H0H-2V60H0ZM0 16H2C2 8.26801 8.26801 2 16 2V0V-2C6.05888 -2 -2 6.05887 -2 16H0ZM16 0V2H197V0V-2H16V0ZM214.346 45.4951L213.692 43.6051C212.081 44.1628 211 45.6803 211 47.3851H213H215V47.3851L214.346 45.4951ZM230.54 36.1099L229.886 37.9999C229.898 38.0042 229.905 38.0076 229.907 38.0087C229.909 38.0098 229.908 38.0096 229.906 38.0075C229.903 38.0054 229.9 38.0024 229.896 37.9987C229.893 37.995 229.89 37.9913 229.888 37.988C229.883 37.9814 229.883 37.9786 229.884 37.9814C229.884 37.9845 229.886 37.9911 229.886 37.9999C229.886 38.0087 229.884 38.0152 229.884 38.0184C229.883 38.0212 229.883 38.0183 229.888 38.0117C229.89 38.0085 229.893 38.0048 229.896 38.0011C229.9 37.9973 229.903 37.9944 229.906 37.9923C229.908 37.9902 229.909 37.9899 229.907 37.9911C229.905 37.9922 229.898 37.9956 229.886 37.9999L230.54 39.8899L231.194 41.7799C234.783 40.5377 234.783 35.4623 231.194 34.22L230.54 36.1099ZM213 28.614H211C211 30.3188 212.081 31.8362 213.691 32.3939L214.346 30.5039L215 28.614V28.614H213Z" fill="#343434" mask="url(#path-1-inside-1_564_556)"/>
</svg>
