<svg width="538" height="112" viewBox="0 0 538 112" fill="none" xmlns="http://www.w3.org/2000/svg">
<mask id="path-1-inside-1_564_568" fill="white">
<path d="M34.8857 0C26.0492 5.37955e-06 18.8857 7.16345 18.8857 16V46.614C18.8857 47.4664 18.3455 48.2251 17.54 48.5039L1.34571 54.1099C-0.448659 54.7311 -0.448612 57.2688 1.34578 57.8899L17.5399 63.4951C18.3455 63.7739 18.8857 64.5327 18.8857 65.3851V96C18.8857 104.837 26.0492 112 34.8857 112H521.886C530.722 112 537.886 104.837 537.886 96V16C537.886 7.16344 530.722 1.55024e-07 521.886 0H34.8857Z"/>
</mask>
<path d="M34.8857 0C26.0492 5.37955e-06 18.8857 7.16345 18.8857 16V46.614C18.8857 47.4664 18.3455 48.2251 17.54 48.5039L1.34571 54.1099C-0.448659 54.7311 -0.448612 57.2688 1.34578 57.8899L17.5399 63.4951C18.3455 63.7739 18.8857 64.5327 18.8857 65.3851V96C18.8857 104.837 26.0492 112 34.8857 112H521.886C530.722 112 537.886 104.837 537.886 96V16C537.886 7.16344 530.722 1.55024e-07 521.886 0H34.8857Z" fill="white"/>
<path d="M34.8857 0V-2V-2V0ZM18.8857 16H16.8857V16H18.8857ZM34.8857 112V114V112ZM521.886 112L521.886 114H521.886V112ZM537.886 96H539.886V96H537.886ZM521.886 0V-2V0ZM17.5399 63.4951L16.8857 65.3851L17.5399 63.4951ZM1.3457 54.1099L1.99994 55.9999L1.3457 54.1099ZM17.54 48.5039L18.1942 50.3939L17.54 48.5039ZM34.8857 0V2C27.1537 2 20.8857 8.26802 20.8857 16H18.8857H16.8857C16.8857 6.05888 24.9446 -1.99999 34.8857 -2V0ZM18.8857 16H20.8857V46.614H18.8857H16.8857V16H18.8857ZM17.54 48.5039L18.1942 50.3939L1.99994 55.9999L1.3457 54.1099L0.691467 52.22L16.8857 46.614L17.54 48.5039ZM1.34576 57.8899L1.99994 55.9999L18.1941 61.6051L17.5399 63.4951L16.8857 65.3851L0.691589 59.7799L1.34576 57.8899ZM18.8857 65.3851H20.8857V96H18.8857H16.8857V65.3851H18.8857ZM18.8857 96H20.8857C20.8857 103.732 27.1537 110 34.8857 110V112V114C24.9446 114 16.8857 105.941 16.8857 96H18.8857ZM34.8857 112V110H521.886V112V114H34.8857V112ZM521.886 112L521.886 110C529.618 110 535.886 103.732 535.886 96H537.886H539.886C539.886 105.941 531.827 114 521.886 114L521.886 112ZM537.886 96H535.886V16H537.886H539.886V96H537.886ZM537.886 16H535.886C535.886 8.26801 529.618 2 521.886 2V0V-2C531.827 -2 539.886 6.05887 539.886 16H537.886ZM521.886 0V2H34.8857V0V-2H521.886V0ZM17.5399 63.4951L18.1941 61.6051C19.8052 62.1628 20.8857 63.6803 20.8857 65.3851H18.8857H16.8857V65.3851L17.5399 63.4951ZM1.3457 54.1099L1.99994 55.9999C1.98755 56.0042 1.9809 56.0076 1.97876 56.0087C1.97668 56.0098 1.97748 56.0096 1.98016 56.0075C1.98291 56.0054 1.98627 56.0024 1.98975 55.9987C1.99316 55.995 1.99603 55.9913 1.99823 55.988C2.00262 55.9814 2.00305 55.9786 2.00226 55.9814C2.00128 55.9845 1.99994 55.9911 1.99994 55.9999C1.99994 56.0087 2.00128 56.0152 2.00226 56.0184C2.00305 56.0212 2.00262 56.0183 1.99823 56.0117C1.99603 56.0085 1.99316 56.0048 1.98975 56.0011C1.98627 55.9973 1.98291 55.9944 1.98016 55.9923C1.97748 55.9902 1.97662 55.9899 1.97876 55.9911C1.9809 55.9922 1.98755 55.9956 1.99994 55.9999L1.34576 57.8899L0.691589 59.7799C-2.89716 58.5377 -2.89728 53.4623 0.691467 52.22L1.3457 54.1099ZM18.8857 46.614H20.8857C20.8857 48.3188 19.8052 49.8362 18.1942 50.3939L17.54 48.5039L16.8857 46.614V46.614H18.8857Z" fill="#687C5E" mask="url(#path-1-inside-1_564_568)"/>
</svg>
