<svg width="95" height="103" viewBox="0 0 95 103" fill="none" xmlns="http://www.w3.org/2000/svg">
<g clip-path="url(#clip0_491_1674)">
<path d="M18.4486 102.779C18.4486 94.1368 17.3212 89.7047 15.0664 86.9346C12.914 84.2753 9.32674 82.724 2.35721 82.6132C9.01926 82.724 12.6065 81.5052 14.7589 79.1783C17.2187 76.7407 18.4486 72.1977 18.4486 63.2227C18.4486 72.1977 19.781 76.7407 22.1384 79.2891C24.2907 81.616 27.878 82.8348 34.54 82.724C27.468 82.9456 23.9832 84.3861 21.8309 87.0454C19.6785 89.7047 18.4486 94.1368 18.4486 102.779Z" stroke="#343434" stroke-width="1.10803" stroke-linecap="round" stroke-linejoin="round"/>
</g>
<path d="M55.5 80C55.5 62.521 53.4331 53.5574 49.2994 47.9552C45.3535 42.577 38.7771 39.4398 26 39.2157C38.2134 39.4398 44.7898 36.9748 48.7357 32.2689C53.2452 27.3389 55.5 18.1513 55.5 0C55.5 18.1513 57.9427 27.3389 62.2643 32.493C66.2102 37.1989 72.7866 39.6639 85 39.4398C72.035 39.888 65.6465 42.8011 61.7006 48.1793C57.7548 53.5574 55.5 62.521 55.5 80ZM36.8981 39.4398C43.2866 40.7843 47.4204 43.2493 50.2389 47.0588C53.0573 50.8683 54.5605 56.0224 55.5 64.3137C56.2516 56.0224 57.9427 50.8683 60.7611 47.0588C63.5796 43.0252 67.9013 40.5602 74.2898 39.4398C68.2771 38.5434 64.3312 36.7507 61.5127 33.6134C58.3185 30.028 56.4395 24.4258 55.6879 15.6863C54.7484 24.4258 52.8694 30.028 49.8631 33.6134C46.8567 36.7507 42.9108 38.5434 36.8981 39.4398Z" fill="#343434"/>
<defs>
<clipPath id="clip0_491_1674">
<rect width="37" height="40" fill="white" transform="translate(0 63)"/>
</clipPath>
</defs>
</svg>
