<svg width="40" height="40" viewBox="0 0 40 40" fill="none" xmlns="http://www.w3.org/2000/svg">
<g clip-path="url(#clip0_491_1679)">
<path d="M19.9445 0.220554C19.9445 8.86321 18.7256 13.2953 16.288 16.0654C13.9611 18.7247 10.083 20.276 2.54834 20.3868C9.75056 20.276 13.6287 21.4948 15.9555 23.8217C18.6148 26.2593 19.9445 30.8023 19.9445 39.7773C19.9445 30.8023 21.3849 26.2593 23.9334 23.7109C26.2603 21.384 30.1384 20.1652 37.3406 20.276C29.6952 20.0544 25.9278 18.6139 23.601 15.9546C21.2741 13.2953 19.9445 8.86321 19.9445 0.220554Z" stroke="#343434" stroke-width="1.10803" stroke-linecap="round" stroke-linejoin="round"/>
</g>
<defs>
<clipPath id="clip0_491_1679">
<rect width="40" height="40" fill="white" transform="matrix(1 0 0 -1 0 40)"/>
</clipPath>
</defs>
</svg>
