<svg width="421" height="405" viewBox="0 0 421 405" fill="none" xmlns="http://www.w3.org/2000/svg">
<path d="M128 367.5C160.794 385.626 199.492 388.225 236.466 383.687C273.44 379.149 308.151 363.002 335.869 337.45C363.586 311.897 382.959 278.181 391.348 240.9C399.736 203.618 396.731 164.585 382.742 129.123L379.387 130.521C393.096 165.273 396.041 203.526 387.821 240.062C379.6 276.597 360.614 309.639 333.451 334.681C306.288 359.722 272.271 375.546 236.037 379.993C199.802 384.44 161.853 381.987 129.715 364.224L128 367.5Z" fill="#687C5E"/>
<path d="M298.106 35.6087C264.406 17.142 225.936 9.7139 187.941 14.3374C149.946 18.9609 114.275 35.4109 85.7924 61.4445C57.3096 87.478 37.4009 121.828 28.7809 159.811C20.1609 197.794 23.2491 237.562 37.6245 273.691L41.072 272.267C26.9841 236.86 23.9577 197.888 32.4053 160.665C40.8529 123.442 60.3634 89.7785 88.2766 64.2656C116.19 38.7527 151.147 22.6316 188.382 18.1006C225.617 13.5696 263.318 20.8491 296.344 38.9466L298.106 35.6087Z" fill="#687C5E"/>
<path d="M301.812 0L301.141 25.449C300.962 32.202 295.539 37.6392 288.786 37.8343L265 38.5216L288.786 39.2089C295.539 39.404 300.962 44.8411 301.141 51.5942L301.812 77.0432L302.484 51.5942C302.662 44.8411 308.085 39.404 314.838 39.2089L338.624 38.5216L314.838 37.8343C308.085 37.6392 302.662 32.202 302.484 25.449L301.812 0Z" fill="#687C5E"/>
<path d="M5.42801 261.867L27.4048 271.617C33.5853 274.359 36.6995 281.508 34.4987 287.901L26.2756 311.786L35.7457 288.412C38.2803 282.156 45.2061 279.123 51.5218 281.504L73.9792 289.971L52.0025 280.22C45.8219 277.478 42.7077 270.33 44.9085 263.937L53.1316 240.052L43.6615 263.426C41.1269 269.682 34.2011 272.714 27.8854 270.333L5.42801 261.867Z" fill="#687C5E"/>
<path d="M129.322 403.959L130.416 378.526C130.706 371.777 136.219 366.439 142.974 366.367L166.768 366.112L142.997 364.993C136.249 364.675 130.916 359.14 130.85 352.384L130.601 326.927L129.507 352.36C129.217 359.109 123.704 364.446 116.949 364.519L93.1552 364.773L116.927 365.893C123.675 366.211 129.007 371.746 129.073 378.501L129.322 403.959Z" fill="#687C5E"/>
<path d="M343.102 124.282L366.674 127.739C373.36 128.72 378.167 134.758 377.625 141.494L375.583 166.856L378.959 141.65C379.856 134.956 385.822 130.182 392.549 130.775L416.268 132.867L392.696 129.409C386.01 128.428 381.202 122.39 381.745 115.655L383.787 90.2925L380.41 115.498C379.514 122.192 373.548 126.966 366.82 126.373L343.102 124.282Z" fill="#687C5E"/>
</svg>
